<?xml version="1.0" encoding="UTF-8"?>
<svg xmlns="http://www.w3.org/2000/svg" width="999.53" height="1020" xmlns:xlink="http://www.w3.org/1999/xlink" viewBox="0 0 999.53 1020">
  <defs>
    <radialGradient id="radial-gradient" cx="507.06" cy="898.47" fx="573.42" fy="935.56" r="76.02" gradientTransform="translate(-197.71 -515.86) scale(1.86 1.58)" gradientUnits="userSpaceOnUse">
      <stop offset="0" stop-color="#cce0f4"/>
      <stop offset=".06" stop-color="#c2dcf2"/>
      <stop offset=".17" stop-color="#a9d2ee"/>
      <stop offset=".31" stop-color="#7fc2e7"/>
      <stop offset=".46" stop-color="#46abdd"/>
      <stop offset=".57" stop-color="#1e9cd7"/>
      <stop offset=".87" stop-color="#0075be"/>
    </radialGradient>
  </defs>
  <g id="Beam">
    <polygon id="Beam-2" data-name="Beam" points="713.84 217.32 1.86 1021.74 438.74 1021.74 801.98 311.62 713.84 217.32" style="fill: #fbb03b; opacity: .25;"/>
  </g>
  <g id="Guy">
    <g id="Guy-2" data-name="Guy">
      <path d="M174.15,958.1s-43.15,25.97-47.25-34.95c-4.1-60.91,57.25-54.83,57.25-54.83,0,0,42.79-15.25,39.05,39.75-3.73,55-49.05,50.03-49.05,50.03Z" style="fill: #f4c28f; stroke: #000; stroke-miterlimit: 10;"/>
      <path d="M140.66,922.81s12.64,23.14,3.14,23.44c-9.51.29-3.14-23.44-3.14-23.44Z" style="fill: blue; stroke: #000; stroke-miterlimit: 10;"/>
      <path d="M163.95,917.11s.84-34.79-10.69-25.35c-11.53,9.45-4.03,30.04-4.03,30.04l14.72-4.69Z" style="fill: #fff; stroke: #000; stroke-miterlimit: 10;"/>
      <path d="M204.3,910.42s4.87-34.27-8.25-27.33c-13.13,6.95-7.23,25.98-7.23,25.98l15.49,1.34Z" style="fill: #fff; stroke: #000; stroke-miterlimit: 10;"/>
      <line x1="193.08" y1="893.55" x2="199" y2="903.64" style="fill: none; stroke: #000; stroke-miterlimit: 10;"/>
      <line x1="199.95" y1="893.23" x2="193.67" y2="902.66" style="fill: none; stroke: #000; stroke-miterlimit: 10;"/>
      <line x1="150.58" y1="900.71" x2="158.24" y2="912.56" style="fill: none; stroke: #000; stroke-miterlimit: 10;"/>
      <line x1="157.45" y1="900.39" x2="151.37" y2="912.88" style="fill: none; stroke: #000; stroke-miterlimit: 10;"/>
      <path d="M166.49,950.98s-25.65-19.04,15.15-27.42c40.8-8.38,28.89,14.49,28.89,14.49,0,0-34.55,17.24-44.04,12.93Z" style="fill: #fff; stroke: #000; stroke-miterlimit: 10;"/>
      <path d="M160.28,944.08s30.88-16.83,51.74-14.26l.31,3.95c-18.35-5.2-49.43,13.85-49.43,13.85" style="stroke: #231f20; stroke-miterlimit: 10;"/>
      <line x1="165.08" y1="929.21" x2="171" y2="938.95" style="fill: none; stroke: #231f20; stroke-miterlimit: 10;"/>
      <line x1="174.45" y1="925.34" x2="179.23" y2="935.65" style="fill: none; stroke: #231f20; stroke-miterlimit: 10;"/>
      <line x1="181.65" y1="923.56" x2="185.91" y2="933.25" style="fill: none; stroke: #231f20; stroke-miterlimit: 10;"/>
      <line x1="191.87" y1="921.98" x2="194.74" y2="931.05" style="fill: none; stroke: #231f20; stroke-miterlimit: 10;"/>
      <line x1="201.04" y1="922.66" x2="202.32" y2="929.83" style="fill: none; stroke: #231f20; stroke-miterlimit: 10;"/>
      <line x1="172.81" y1="942.29" x2="177.78" y2="951.35" style="fill: none; stroke: #231f20; stroke-miterlimit: 10;"/>
      <line x1="179.42" y1="938.56" x2="185.09" y2="948.62" style="fill: none; stroke: #231f20; stroke-miterlimit: 10;"/>
      <line x1="187.34" y1="936.51" x2="192.33" y2="946.03" style="fill: none; stroke: #231f20; stroke-miterlimit: 10;"/>
      <line x1="192.71" y1="934.68" x2="198.94" y2="943.35" style="fill: none; stroke: #231f20; stroke-miterlimit: 10;"/>
      <path d="M197.07,934.25s-3.9,32.65,9.14,28.08c13.05-4.57,2.4-31.93,2.4-31.93l-6.29,2.1-5.25,1.75Z" style="fill: #ff1d25; stroke: #000; stroke-miterlimit: 10;"/>
      <path d="M202.87,931.42s5.58,22.08.79,30.66" style="fill: none; stroke: #000; stroke-miterlimit: 10;"/>
      <path d="M283.83,865.86l46.51-24.56s11.62.05,4.99-14.77c-6.63-14.82-8.46-22.2-8.46-22.2,0,0,1.78-10.11-14.84-3.84-16.62,6.27-37.73,26.51-37.73,26.51,0,0,2.69,37.41,9.54,38.86Z" style="fill: #fff; stroke: #000; stroke-miterlimit: 10;"/>
      <polyline points="274.04 823.21 289.69 915.28 281.36 913.46 264.35 823.66" style="fill: #ccc; stroke: #000; stroke-miterlimit: 10;"/>
      <path d="M269.24,824.09s-10.74,5.22-8.18-9.45,15.99-3.49,15.99-3.49c0,0,4.89,12.94-7.81,12.94Z" style="fill: #fcee21; stroke: #000; stroke-miterlimit: 10;"/>
      <path d="M297.93,899.97s-19.07,10.13-7.61,7.64c11.46-2.5,11.45,1.52,11.45,1.52,0,0-19.34,14.37-5.36,9.1,13.98-5.27,5.37,7.84,5.37,7.84l-30.15,10.08-8.16-17.5,6.5-8.05s-7.17-10.56-1.33-20.56,15.05,14.33,15.05,14.33l-.79-.31c.67-1.44,1.35-2.91,2.64-4.12s3.31-2.11,5.38-1.95c0,0,10.18.2,7,1.97Z" style="fill: #f4c28f; stroke: #000; stroke-miterlimit: 10;"/>
      <path d="M249.65,979.66c-4.95,8.23,30.48,4.88,30.48,4.88l1.71,26.43s-10.74.5-64.8,4.97-49.88-54.68-49.88-54.68l16.7-3.56s1.84,45.15,21,36.4,37.58-12.16,38.13-24.57c.55-12.41,3.77-41.91,9.7-42.15,5.93-.24,10.78-8.75,10.78-8.75l8.16,17.5s-28.57,72.1-52.27,69.08" style="fill: #39b54a; stroke: #000; stroke-miterlimit: 10;"/>
      <polyline points="281.6 1006.51 366.83 1009.53 370.74 986.57 280.43 983.98" style="fill: #0071bc; stroke: #231f20; stroke-miterlimit: 10;"/>
      <path d="M376.84,1008.58s30.33,21.93,45.17,4.93c14.84-17-15.1-107.97-23.4-102.67s-22.51-1.31-20.27,70.9l-1.5,26.84Z" style="fill: #998675; stroke: #231f20; stroke-miterlimit: 10;"/>
      <polyline points="378.25 983.39 370.51 986.03 367.14 1009.03 376.84 1008.58" style="fill: #fff; stroke: #231f20; stroke-miterlimit: 10;"/>
    </g>
    <g id="Guy-3" data-name="Guy">
      <path d="M174.15,958.1s-43.15,25.97-47.25-34.95c-4.1-60.91,57.25-54.83,57.25-54.83,0,0,42.79-15.25,39.05,39.75-3.73,55-49.05,50.03-49.05,50.03Z" style="fill: #ffb1c7; stroke: #000; stroke-miterlimit: 10;"/>
      <path d="M140.66,922.81s12.64,23.14,3.14,23.44c-9.51.29-3.14-23.44-3.14-23.44Z" style="fill: #ffb1c7; stroke: #000; stroke-miterlimit: 10;"/>
      <path d="M163.95,917.11s.84-34.79-10.69-25.35c-11.53,9.45-4.03,30.04-4.03,30.04l14.72-4.69Z" style="fill: #ffb1c7; stroke: #000; stroke-miterlimit: 10;"/>
      <path d="M204.3,910.42s4.87-34.27-8.25-27.33c-13.13,6.95-7.23,25.98-7.23,25.98l15.49,1.34Z" style="fill: #ffb1c7; stroke: #000; stroke-miterlimit: 10;"/>
      <line x1="193.08" y1="893.55" x2="199" y2="903.64" style="fill: #ffb1c7; stroke: #000; stroke-miterlimit: 10;"/>
      <line x1="199.95" y1="893.23" x2="193.67" y2="902.66" style="fill: #ffb1c7; stroke: #000; stroke-miterlimit: 10;"/>
      <line x1="150.58" y1="900.71" x2="158.24" y2="912.56" style="fill: #ffb1c7; stroke: #000; stroke-miterlimit: 10;"/>
      <line x1="157.45" y1="900.39" x2="151.37" y2="912.88" style="fill: #ffb1c7; stroke: #000; stroke-miterlimit: 10;"/>
      <path d="M166.49,950.98s-25.65-19.04,15.15-27.42c40.8-8.38,28.89,14.49,28.89,14.49,0,0-34.55,17.24-44.04,12.93Z" style="fill: #ffb1c7; stroke: #000; stroke-miterlimit: 10;"/>
      <path d="M160.28,944.08s30.88-16.83,51.74-14.26l.31,3.95c-18.35-5.2-49.43,13.85-49.43,13.85" style="fill: #ffb1c7; stroke: #231f20; stroke-miterlimit: 10;"/>
      <line x1="165.08" y1="929.21" x2="171" y2="938.95" style="fill: #ffb1c7; stroke: #231f20; stroke-miterlimit: 10;"/>
      <line x1="174.45" y1="925.34" x2="179.23" y2="935.65" style="fill: #ffb1c7; stroke: #231f20; stroke-miterlimit: 10;"/>
      <line x1="181.65" y1="923.56" x2="185.91" y2="933.25" style="fill: #ffb1c7; stroke: #231f20; stroke-miterlimit: 10;"/>
      <line x1="191.87" y1="921.98" x2="194.74" y2="931.05" style="fill: #ffb1c7; stroke: #231f20; stroke-miterlimit: 10;"/>
      <line x1="201.04" y1="922.66" x2="202.32" y2="929.83" style="fill: #ffb1c7; stroke: #231f20; stroke-miterlimit: 10;"/>
      <line x1="172.81" y1="942.29" x2="177.78" y2="951.35" style="fill: #ffb1c7; stroke: #231f20; stroke-miterlimit: 10;"/>
      <line x1="179.42" y1="938.56" x2="185.09" y2="948.62" style="fill: #ffb1c7; stroke: #231f20; stroke-miterlimit: 10;"/>
      <line x1="187.34" y1="936.51" x2="192.33" y2="946.03" style="fill: #ffb1c7; stroke: #231f20; stroke-miterlimit: 10;"/>
      <line x1="192.71" y1="934.68" x2="198.94" y2="943.35" style="fill: #ffb1c7; stroke: #231f20; stroke-miterlimit: 10;"/>
      <path d="M197.07,934.25s-3.9,32.65,9.14,28.08c13.05-4.57,2.4-31.93,2.4-31.93l-6.29,2.1-5.25,1.75Z" style="fill: #ffb1c7; stroke: #000; stroke-miterlimit: 10;"/>
      <path d="M202.87,931.42s5.58,22.08.79,30.66" style="fill: #ffb1c7; stroke: #000; stroke-miterlimit: 10;"/>
      <path d="M283.83,865.86l46.51-24.56s11.62.05,4.99-14.77c-6.63-14.82-8.46-22.2-8.46-22.2,0,0,1.78-10.11-14.84-3.84-16.62,6.27-37.73,26.51-37.73,26.51,0,0,2.69,37.41,9.54,38.86Z" style="fill: #ffb1c7; stroke: #000; stroke-miterlimit: 10;"/>
      <polyline points="274.04 823.21 289.69 915.28 281.36 913.46 264.35 823.66" style="fill: #ffb1c7; stroke: #000; stroke-miterlimit: 10;"/>
      <path d="M269.24,824.09s-10.74,5.22-8.18-9.45,15.99-3.49,15.99-3.49c0,0,4.89,12.94-7.81,12.94Z" style="fill: #ffb1c7; stroke: #000; stroke-miterlimit: 10;"/>
      <path d="M297.93,899.97s-19.07,10.13-7.61,7.64c11.46-2.5,11.45,1.52,11.45,1.52,0,0-19.34,14.37-5.36,9.1,13.98-5.27,5.37,7.84,5.37,7.84l-30.15,10.08-8.16-17.5,6.5-8.05s-7.17-10.56-1.33-20.56,15.05,14.33,15.05,14.33l-.79-.31c.67-1.44,1.35-2.91,2.64-4.12s3.31-2.11,5.38-1.95c0,0,10.18.2,7,1.97Z" style="fill: #ffb1c7; stroke: #000; stroke-miterlimit: 10;"/>
      <path d="M249.65,979.66c-4.95,8.23,30.48,4.88,30.48,4.88l1.71,26.43s-10.74.5-64.8,4.97-49.88-54.68-49.88-54.68l16.7-3.56s1.84,45.15,21,36.4,37.58-12.16,38.13-24.57c.55-12.41,3.77-41.91,9.7-42.15,5.93-.24,10.78-8.75,10.78-8.75l8.16,17.5s-28.57,72.1-52.27,69.08" style="fill: #ffb1c7; stroke: #000; stroke-miterlimit: 10;"/>
      <polyline points="281.6 1006.51 366.83 1009.53 370.74 986.57 280.43 983.98" style="fill: #ffb1c7; stroke: #231f20; stroke-miterlimit: 10;"/>
      <path d="M376.84,1008.58s30.33,21.93,45.17,4.93c14.84-17-15.1-107.97-23.4-102.67-8.3,5.3-22.51-1.31-20.27,70.9l-1.5,26.84Z" style="fill: #ffb1c7; stroke: #231f20; stroke-miterlimit: 10;"/>
      <polyline points="378.25 983.39 370.51 986.03 367.14 1009.03 376.84 1008.58" style="fill: #ffb1c7; stroke: #231f20; stroke-miterlimit: 10;"/>
    </g>
  </g>
  <g id="Pyramid">
    <g id="Pyramid-2" data-name="Pyramid">
      <polygon points="64.74 302.26 470.63 288.68 253.48 23.42 99.43 251.01 64.74 302.26" style="fill: #deecc4; stroke: #000; stroke-miterlimit: 10;"/>
      <path d="M249.31,273.66s-81.43-93.31,0-192.33c0,0,100.22,70.07,0,192.33Z" style="fill: #fffef5; stroke: #231f20; stroke-miterlimit: 10;"/>
      <path d="M255.86,224.33s27.98-82.22,0-93.66c0,0-44.26,5,0,93.66Z" style="fill: #f7931e; stroke: #231f20; stroke-miterlimit: 10;"/>
      <line x1="252.24" y1="159.98" x2="252.24" y2="184.29" style="fill: none; stroke: #231f20; stroke-miterlimit: 10;"/>
      <line x1="99.43" y1="251.01" x2="230.93" y2="251.01" style="fill: none; stroke: #231f20; stroke-miterlimit: 10;"/>
      <line x1="267.68" y1="251.01" x2="437.22" y2="247.87" style="fill: none; stroke: #231f20; stroke-miterlimit: 10;"/>
      <line x1="216.86" y1="207.22" x2="128.16" y2="208.57" style="fill: none; stroke: #231f20; stroke-miterlimit: 10;"/>
      <polyline points="403.94 207.22 287.62 207.22 287.62 249.82" style="fill: none; stroke: #231f20; stroke-miterlimit: 10;"/>
      <line x1="213.12" y1="168.2" x2="155.48" y2="168.2" style="fill: none; stroke: #231f20; stroke-miterlimit: 10;"/>
      <line x1="293.78" y1="165.7" x2="369.96" y2="165.7" style="fill: none; stroke: #231f20; stroke-miterlimit: 10;"/>
      <line x1="222.66" y1="125.68" x2="184.26" y2="125.68" style="fill: none; stroke: #231f20; stroke-miterlimit: 10;"/>
      <line x1="284.41" y1="125.68" x2="337.2" y2="125.68" style="fill: none; stroke: #231f20; stroke-miterlimit: 10;"/>
      <line x1="245.53" y1="86.08" x2="208.8" y2="86.08" style="fill: none; stroke: #231f20; stroke-miterlimit: 10;"/>
      <polyline points="253.48 23.42 255.15 86.08 304.78 86.08" style="fill: none; stroke: #231f20; stroke-miterlimit: 10;"/>
      <line x1="219.66" y1="86.08" x2="216.86" y2="123.87" style="fill: none; stroke: #231f20; stroke-miterlimit: 10;"/>
      <line x1="295.66" y1="86.08" x2="295.66" y2="125.68" style="fill: none; stroke: #231f20; stroke-miterlimit: 10;"/>
      <line x1="316.96" y1="125.68" x2="321.55" y2="165.7" style="fill: none; stroke: #231f20; stroke-miterlimit: 10;"/>
      <line x1="199.62" y1="125.68" x2="197.53" y2="168.2" style="fill: none; stroke: #231f20; stroke-miterlimit: 10;"/>
      <line x1="178.74" y1="168.2" x2="178.74" y2="207.22" style="fill: none; stroke: #231f20; stroke-miterlimit: 10;"/>
      <line x1="304.78" y1="165.7" x2="304.78" y2="207.22" style="fill: none; stroke: #231f20; stroke-miterlimit: 10;"/>
      <line x1="350.36" y1="165.7" x2="350.36" y2="207.22" style="fill: none; stroke: #231f20; stroke-miterlimit: 10;"/>
      <line x1="152.85" y1="207.22" x2="152.85" y2="251.01" style="fill: none; stroke: #231f20; stroke-miterlimit: 10;"/>
      <line x1="213.12" y1="207.28" x2="216.86" y2="251.01" style="fill: none; stroke: #231f20; stroke-miterlimit: 10;"/>
      <line x1="329.48" y1="207.28" x2="331.87" y2="249.82" style="fill: none; stroke: #231f20; stroke-miterlimit: 10;"/>
      <line x1="383.77" y1="207.9" x2="383.77" y2="247.87" style="fill: none; stroke: #231f20; stroke-miterlimit: 10;"/>
      <line x1="418.43" y1="248.22" x2="420.91" y2="290.34" style="fill: none; stroke: #231f20; stroke-miterlimit: 10;"/>
      <line x1="352.45" y1="249.82" x2="355.42" y2="292.53" style="fill: none; stroke: #231f20; stroke-miterlimit: 10;"/>
      <line x1="304.78" y1="249.44" x2="304.78" y2="292.53" style="fill: none; stroke: #231f20; stroke-miterlimit: 10;"/>
      <line x1="252.83" y1="269.28" x2="252.83" y2="295.97" style="fill: none; stroke: #231f20; stroke-miterlimit: 10;"/>
      <line x1="191.26" y1="251.01" x2="191.26" y2="295.97" style="fill: none; stroke: #231f20; stroke-miterlimit: 10;"/>
      <line x1="131.97" y1="251.01" x2="129.91" y2="300.08" style="fill: none; stroke: #231f20; stroke-miterlimit: 10;"/>
      <g>
        <line x1="310.59" y1="101.41" x2="321.45" y2="125.05" style="fill: #231f20;"/>
        <path d="M310.59,101.41c4.22,7.57,7.87,15.51,10.86,23.65-4.22-7.57-7.87-15.51-10.86-23.65h0Z" style="fill: #ff0;"/>
      </g>
      <g>
        <line x1="322.7" y1="102.75" x2="308.29" y2="123.21" style="fill: #231f20;"/>
        <path d="M322.7,102.75c-4.22,7.19-9.07,14.07-14.41,20.47,4.22-7.19,9.07-14.07,14.41-20.47h0Z" style="fill: #ff0;"/>
      </g>
      <g>
        <line x1="304.12" y1="111.68" x2="329.8" y2="113.23" style="fill: #231f20;"/>
        <path d="M304.12,111.68c8.57-.17,17.2.35,25.68,1.54-8.57.17-17.2-.35-25.68-1.54h0Z" style="fill: #ff0;"/>
      </g>
      <g>
        <line x1="306.83" y1="105.87" x2="325.1" y2="119.19" style="fill: #231f20;"/>
        <path d="M306.83,105.87c6.49,3.88,12.59,8.32,18.27,13.32-6.49-3.88-12.59-8.33-18.27-13.32h0Z" style="fill: #ff0;"/>
      </g>
      <g>
        <line x1="308.29" y1="117.14" x2="327.81" y2="106.68" style="fill: #231f20;"/>
        <path d="M308.29,117.14c6.18-4.09,12.69-7.58,19.52-10.46-6.18,4.09-12.69,7.58-19.52,10.46h0Z" style="fill: #ff0;"/>
      </g>
      <g>
        <line x1="315.49" y1="121.96" x2="316.96" y2="103.91" style="fill: #231f20;"/>
        <path d="M315.49,121.96c-.2-6.07.29-12.09,1.46-18.05.2,6.07-.29,12.09-1.46,18.05h0Z" style="fill: #ff0;"/>
      </g>
      <g>
        <line x1="146.48" y1="247.59" x2="157.34" y2="271.24" style="fill: #231f20;"/>
        <path d="M146.48,247.59c4.22,7.57,7.87,15.51,10.86,23.65-4.22-7.57-7.87-15.51-10.86-23.65h0Z" style="fill: #ff0;"/>
      </g>
      <g>
        <line x1="158.59" y1="248.93" x2="144.18" y2="269.4" style="fill: #231f20;"/>
        <path d="M158.59,248.93c-4.22,7.19-9.07,14.07-14.41,20.47,4.22-7.19,9.07-14.07,14.41-20.47h0Z" style="fill: #ff0;"/>
      </g>
      <g>
        <line x1="140.01" y1="257.87" x2="165.69" y2="259.41" style="fill: #231f20;"/>
        <path d="M140.01,257.87c8.57-.17,17.2.35,25.68,1.54-8.57.17-17.2-.35-25.68-1.54h0Z" style="fill: #ff0;"/>
      </g>
      <g>
        <line x1="142.72" y1="252.06" x2="160.99" y2="265.37" style="fill: #231f20;"/>
        <path d="M142.72,252.06c6.49,3.88,12.59,8.32,18.27,13.32-6.49-3.88-12.59-8.33-18.27-13.32h0Z" style="fill: #ff0;"/>
      </g>
      <g>
        <line x1="144.18" y1="263.32" x2="163.7" y2="252.86" style="fill: #231f20;"/>
        <path d="M144.18,263.32c6.18-4.09,12.69-7.58,19.52-10.46-6.18,4.09-12.69,7.58-19.52,10.46h0Z" style="fill: #ff0;"/>
      </g>
      <g>
        <line x1="151.39" y1="268.15" x2="152.85" y2="250.09" style="fill: #231f20;"/>
        <path d="M151.39,268.15c-.2-6.07.29-12.09,1.46-18.05.2,6.07-.29,12.09-1.46,18.05h0Z" style="fill: #ff0;"/>
      </g>
      <g>
        <line x1="239.16" y1="42.93" x2="250.02" y2="66.57" style="fill: #231f20;"/>
        <path d="M239.16,42.93c4.22,7.57,7.87,15.51,10.86,23.65-4.22-7.57-7.87-15.51-10.86-23.65h0Z" style="fill: #ff0;"/>
      </g>
      <g>
        <line x1="251.27" y1="44.27" x2="236.86" y2="64.74" style="fill: #231f20;"/>
        <path d="M251.27,44.27c-4.22,7.19-9.07,14.07-14.41,20.47,4.22-7.19,9.07-14.07,14.41-20.47h0Z" style="fill: #ff0;"/>
      </g>
      <g>
        <line x1="232.69" y1="53.21" x2="258.37" y2="54.75" style="fill: #231f20;"/>
        <path d="M232.69,53.21c8.57-.17,17.2.35,25.68,1.54-8.57.17-17.2-.35-25.68-1.54h0Z" style="fill: #ff0;"/>
      </g>
      <g>
        <line x1="235.4" y1="47.4" x2="253.67" y2="60.71" style="fill: #231f20;"/>
        <path d="M235.4,47.4c6.49,3.88,12.59,8.32,18.27,13.32-6.49-3.88-12.59-8.33-18.27-13.32h0Z" style="fill: #ff0;"/>
      </g>
      <g>
        <line x1="236.86" y1="58.66" x2="256.39" y2="48.2" style="fill: #231f20;"/>
        <path d="M236.86,58.66c6.18-4.09,12.69-7.58,19.52-10.46-6.18,4.09-12.69,7.58-19.52,10.46h0Z" style="fill: #ff0;"/>
      </g>
      <g>
        <line x1="244.07" y1="63.48" x2="245.53" y2="45.43" style="fill: #231f20;"/>
        <path d="M244.07,63.48c-.2-6.07.29-12.09,1.46-18.05.2,6.07-.29,12.09-1.46,18.05h0Z" style="fill: #ff0;"/>
      </g>
      <g>
        <line x1="339.42" y1="217.32" x2="350.27" y2="240.97" style="fill: #231f20;"/>
        <path d="M339.42,217.32c4.22,7.57,7.87,15.51,10.86,23.65-4.22-7.57-7.87-15.51-10.86-23.65h0Z" style="fill: #ff0;"/>
      </g>
      <g>
        <line x1="351.53" y1="218.66" x2="337.12" y2="239.13" style="fill: #231f20;"/>
        <path d="M351.53,218.66c-4.22,7.19-9.07,14.07-14.41,20.47,4.22-7.19,9.07-14.07,14.41-20.47h0Z" style="fill: #ff0;"/>
      </g>
      <g>
        <line x1="332.94" y1="227.6" x2="358.62" y2="229.14" style="fill: #231f20;"/>
        <path d="M332.94,227.6c8.57-.17,17.2.35,25.68,1.54-8.57.17-17.2-.35-25.68-1.54h0Z" style="fill: #ff0;"/>
      </g>
      <g>
        <line x1="335.66" y1="221.79" x2="353.93" y2="235.11" style="fill: #231f20;"/>
        <path d="M335.66,221.79c6.49,3.88,12.59,8.32,18.27,13.32-6.49-3.88-12.59-8.33-18.27-13.32h0Z" style="fill: #ff0;"/>
      </g>
      <g>
        <line x1="337.12" y1="233.05" x2="356.64" y2="222.59" style="fill: #231f20;"/>
        <path d="M337.12,233.05c6.18-4.09,12.69-7.58,19.52-10.46-6.18,4.09-12.69,7.58-19.52,10.46h0Z" style="fill: #ff0;"/>
      </g>
      <g>
        <line x1="344.32" y1="237.88" x2="345.78" y2="219.82" style="fill: #231f20;"/>
        <path d="M344.32,237.88c-.2-6.07.29-12.09,1.46-18.05.2,6.07-.29,12.09-1.46,18.05h0Z" style="fill: #ff0;"/>
      </g>
    </g>
    <g id="Pyramid-3" data-name="Pyramid">
      <polygon points="64.74 302.26 470.63 288.68 253.48 23.42 99.43 251.01 64.74 302.26" style="fill: #ffb1c7; stroke: #000; stroke-miterlimit: 10;"/>
      <path d="M249.31,273.66s-81.43-93.31,0-192.33c0,0,100.22,70.07,0,192.33Z" style="fill: #ffb1c7; stroke: #231f20; stroke-miterlimit: 10;"/>
      <path d="M255.86,224.33s27.98-82.22,0-93.66c0,0-44.26,5,0,93.66Z" style="fill: #ffb1c7; stroke: #231f20; stroke-miterlimit: 10;"/>
      <line x1="252.24" y1="159.98" x2="252.24" y2="184.29" style="fill: #ffb1c7; stroke: #231f20; stroke-miterlimit: 10;"/>
      <line x1="99.43" y1="251.01" x2="230.93" y2="251.01" style="fill: #ffb1c7; stroke: #231f20; stroke-miterlimit: 10;"/>
      <line x1="267.68" y1="251.01" x2="437.22" y2="247.87" style="fill: #ffb1c7; stroke: #231f20; stroke-miterlimit: 10;"/>
      <line x1="216.86" y1="207.22" x2="128.16" y2="208.57" style="fill: #ffb1c7; stroke: #231f20; stroke-miterlimit: 10;"/>
      <polyline points="403.94 207.22 287.62 207.22 287.62 249.82" style="fill: #ffb1c7; stroke: #231f20; stroke-miterlimit: 10;"/>
      <line x1="213.12" y1="168.2" x2="155.48" y2="168.2" style="fill: #ffb1c7; stroke: #231f20; stroke-miterlimit: 10;"/>
      <line x1="293.78" y1="165.7" x2="369.96" y2="165.7" style="fill: #ffb1c7; stroke: #231f20; stroke-miterlimit: 10;"/>
      <line x1="222.66" y1="125.68" x2="184.26" y2="125.68" style="fill: #ffb1c7; stroke: #231f20; stroke-miterlimit: 10;"/>
      <line x1="284.41" y1="125.68" x2="337.2" y2="125.68" style="fill: #ffb1c7; stroke: #231f20; stroke-miterlimit: 10;"/>
      <line x1="245.53" y1="86.08" x2="208.8" y2="86.08" style="fill: #ffb1c7; stroke: #231f20; stroke-miterlimit: 10;"/>
      <polyline points="253.48 23.42 255.15 86.08 304.78 86.08" style="fill: #ffb1c7; stroke: #231f20; stroke-miterlimit: 10;"/>
      <line x1="219.66" y1="86.08" x2="216.86" y2="123.87" style="fill: #ffb1c7; stroke: #231f20; stroke-miterlimit: 10;"/>
      <line x1="295.66" y1="86.08" x2="295.66" y2="125.68" style="fill: #ffb1c7; stroke: #231f20; stroke-miterlimit: 10;"/>
      <line x1="316.96" y1="125.68" x2="321.55" y2="165.7" style="fill: #ffb1c7; stroke: #231f20; stroke-miterlimit: 10;"/>
      <line x1="199.62" y1="125.68" x2="197.53" y2="168.2" style="fill: #ffb1c7; stroke: #231f20; stroke-miterlimit: 10;"/>
      <line x1="178.74" y1="168.2" x2="178.74" y2="207.22" style="fill: #ffb1c7; stroke: #231f20; stroke-miterlimit: 10;"/>
      <line x1="304.78" y1="165.7" x2="304.78" y2="207.22" style="fill: #ffb1c7; stroke: #231f20; stroke-miterlimit: 10;"/>
      <line x1="350.36" y1="165.7" x2="350.36" y2="207.22" style="fill: #ffb1c7; stroke: #231f20; stroke-miterlimit: 10;"/>
      <line x1="152.85" y1="207.22" x2="152.85" y2="251.01" style="fill: #ffb1c7; stroke: #231f20; stroke-miterlimit: 10;"/>
      <line x1="213.12" y1="207.28" x2="216.86" y2="251.01" style="fill: #ffb1c7; stroke: #231f20; stroke-miterlimit: 10;"/>
      <line x1="329.48" y1="207.28" x2="331.87" y2="249.82" style="fill: #ffb1c7; stroke: #231f20; stroke-miterlimit: 10;"/>
      <line x1="383.77" y1="207.9" x2="383.77" y2="247.87" style="fill: #ffb1c7; stroke: #231f20; stroke-miterlimit: 10;"/>
      <line x1="418.43" y1="248.22" x2="420.91" y2="290.34" style="fill: #ffb1c7; stroke: #231f20; stroke-miterlimit: 10;"/>
      <line x1="352.45" y1="249.82" x2="355.42" y2="292.53" style="fill: #ffb1c7; stroke: #231f20; stroke-miterlimit: 10;"/>
      <line x1="304.78" y1="249.44" x2="304.78" y2="292.53" style="fill: #ffb1c7; stroke: #231f20; stroke-miterlimit: 10;"/>
      <line x1="252.83" y1="269.28" x2="252.83" y2="295.97" style="fill: #ffb1c7; stroke: #231f20; stroke-miterlimit: 10;"/>
      <line x1="191.26" y1="251.01" x2="191.26" y2="295.97" style="fill: #ffb1c7; stroke: #231f20; stroke-miterlimit: 10;"/>
      <line x1="131.97" y1="251.01" x2="129.91" y2="300.08" style="fill: #ffb1c7; stroke: #231f20; stroke-miterlimit: 10;"/>
      <g>
        <line x1="310.59" y1="101.41" x2="321.45" y2="125.05" style="fill: #ffb1c7;"/>
        <path d="M310.59,101.41c4.22,7.57,7.87,15.51,10.86,23.65-4.22-7.57-7.87-15.51-10.86-23.65h0Z" style="fill: #ff0;"/>
      </g>
      <g>
        <line x1="322.7" y1="102.75" x2="308.29" y2="123.21" style="fill: #ffb1c7;"/>
        <path d="M322.7,102.75c-4.22,7.19-9.07,14.07-14.41,20.47,4.22-7.19,9.07-14.07,14.41-20.47h0Z" style="fill: #ff0;"/>
      </g>
      <g>
        <line x1="304.12" y1="111.68" x2="329.8" y2="113.23" style="fill: #ffb1c7;"/>
        <path d="M304.12,111.68c8.57-.17,17.2.35,25.68,1.54-8.57.17-17.2-.35-25.68-1.54h0Z" style="fill: #ff0;"/>
      </g>
      <g>
        <line x1="306.83" y1="105.87" x2="325.1" y2="119.19" style="fill: #ffb1c7;"/>
        <path d="M306.83,105.87c6.49,3.88,12.59,8.32,18.27,13.32-6.49-3.88-12.59-8.33-18.27-13.32h0Z" style="fill: #ff0;"/>
      </g>
      <g>
        <line x1="308.29" y1="117.14" x2="327.81" y2="106.68" style="fill: #ffb1c7;"/>
        <path d="M308.29,117.14c6.18-4.09,12.69-7.58,19.52-10.46-6.18,4.09-12.69,7.58-19.52,10.46h0Z" style="fill: #ff0;"/>
      </g>
      <g>
        <line x1="315.49" y1="121.96" x2="316.96" y2="103.91" style="fill: #ffb1c7;"/>
        <path d="M315.49,121.96c-.2-6.07.29-12.09,1.46-18.05.2,6.07-.29,12.09-1.46,18.05h0Z" style="fill: #ff0;"/>
      </g>
      <g>
        <line x1="146.48" y1="247.59" x2="157.34" y2="271.24" style="fill: #ffb1c7;"/>
        <path d="M146.48,247.59c4.22,7.57,7.87,15.51,10.86,23.65-4.22-7.57-7.87-15.51-10.86-23.65h0Z" style="fill: #ff0;"/>
      </g>
      <g>
        <line x1="158.59" y1="248.93" x2="144.18" y2="269.4" style="fill: #ffb1c7;"/>
        <path d="M158.59,248.93c-4.22,7.19-9.07,14.07-14.41,20.47,4.22-7.19,9.07-14.07,14.41-20.47h0Z" style="fill: #ff0;"/>
      </g>
      <g>
        <line x1="140.01" y1="257.87" x2="165.69" y2="259.41" style="fill: #ffb1c7;"/>
        <path d="M140.01,257.87c8.57-.17,17.2.35,25.68,1.55-8.57.17-17.2-.35-25.68-1.55h0Z" style="fill: #ff0;"/>
      </g>
      <g>
        <line x1="142.72" y1="252.06" x2="160.99" y2="265.37" style="fill: #ffb1c7;"/>
        <path d="M142.72,252.06c6.49,3.88,12.59,8.32,18.27,13.32-6.49-3.88-12.59-8.33-18.27-13.32h0Z" style="fill: #ff0;"/>
      </g>
      <g>
        <line x1="144.18" y1="263.32" x2="163.7" y2="252.86" style="fill: #ffb1c7;"/>
        <path d="M144.18,263.32c6.18-4.09,12.69-7.58,19.52-10.46-6.18,4.09-12.69,7.58-19.52,10.46h0Z" style="fill: #ff0;"/>
      </g>
      <g>
        <line x1="151.39" y1="268.15" x2="152.85" y2="250.09" style="fill: #ffb1c7;"/>
        <path d="M151.39,268.15c-.2-6.07.29-12.09,1.46-18.05.2,6.07-.29,12.09-1.46,18.05h0Z" style="fill: #ff0;"/>
      </g>
      <g>
        <line x1="239.16" y1="42.93" x2="250.02" y2="66.57" style="fill: #ffb1c7;"/>
        <path d="M239.16,42.93c4.22,7.57,7.87,15.51,10.86,23.65-4.22-7.57-7.87-15.51-10.86-23.65h0Z" style="fill: #ff0;"/>
      </g>
      <g>
        <line x1="251.27" y1="44.27" x2="236.86" y2="64.74" style="fill: #ffb1c7;"/>
        <path d="M251.27,44.27c-4.22,7.19-9.07,14.07-14.41,20.47,4.22-7.19,9.07-14.07,14.41-20.47h0Z" style="fill: #ff0;"/>
      </g>
      <g>
        <line x1="232.69" y1="53.21" x2="258.37" y2="54.75" style="fill: #ffb1c7;"/>
        <path d="M232.69,53.21c8.57-.17,17.2.35,25.68,1.54-8.57.17-17.2-.35-25.68-1.54h0Z" style="fill: #ff0;"/>
      </g>
      <g>
        <line x1="235.4" y1="47.4" x2="253.67" y2="60.71" style="fill: #ffb1c7;"/>
        <path d="M235.4,47.4c6.49,3.88,12.59,8.32,18.27,13.32-6.49-3.88-12.59-8.33-18.27-13.32h0Z" style="fill: #ff0;"/>
      </g>
      <g>
        <line x1="236.86" y1="58.66" x2="256.39" y2="48.2" style="fill: #ffb1c7;"/>
        <path d="M236.86,58.66c6.18-4.09,12.69-7.58,19.52-10.46-6.18,4.09-12.69,7.58-19.52,10.46h0Z" style="fill: #ff0;"/>
      </g>
      <g>
        <line x1="244.07" y1="63.48" x2="245.53" y2="45.43" style="fill: #ffb1c7;"/>
        <path d="M244.07,63.48c-.2-6.07.29-12.09,1.46-18.05.2,6.07-.29,12.09-1.46,18.05h0Z" style="fill: #ff0;"/>
      </g>
      <g>
        <line x1="339.42" y1="217.32" x2="350.27" y2="240.97" style="fill: #ffb1c7;"/>
        <path d="M339.42,217.32c4.22,7.57,7.87,15.51,10.86,23.65-4.22-7.57-7.87-15.51-10.86-23.65h0Z" style="fill: #ff0;"/>
      </g>
      <g>
        <line x1="351.53" y1="218.66" x2="337.12" y2="239.13" style="fill: #ffb1c7;"/>
        <path d="M351.53,218.66c-4.22,7.19-9.07,14.07-14.41,20.47,4.22-7.19,9.07-14.07,14.41-20.47h0Z" style="fill: #ff0;"/>
      </g>
      <g>
        <line x1="332.94" y1="227.6" x2="358.62" y2="229.14" style="fill: #ffb1c7;"/>
        <path d="M332.94,227.6c8.57-.17,17.2.35,25.68,1.55-8.57.17-17.2-.35-25.68-1.55h0Z" style="fill: #ff0;"/>
      </g>
      <g>
        <line x1="335.66" y1="221.79" x2="353.93" y2="235.11" style="fill: #ffb1c7;"/>
        <path d="M335.66,221.79c6.49,3.88,12.59,8.32,18.27,13.32-6.49-3.88-12.59-8.33-18.27-13.32h0Z" style="fill: #ff0;"/>
      </g>
      <g>
        <line x1="337.12" y1="233.05" x2="356.64" y2="222.59" style="fill: #ffb1c7;"/>
        <path d="M337.12,233.05c6.18-4.09,12.69-7.58,19.52-10.46-6.18,4.09-12.69,7.58-19.52,10.46h0Z" style="fill: #ff0;"/>
      </g>
      <g>
        <line x1="344.32" y1="237.88" x2="345.78" y2="219.82" style="fill: #ffb1c7;"/>
        <path d="M344.32,237.88c-.2-6.07.29-12.09,1.46-18.05.2,6.07-.29,12.09-1.46,18.05h0Z" style="fill: #ff0;"/>
      </g>
    </g>
  </g>
  <g id="House">
    <g id="House-2" data-name="House">
      <polygon points="656.2 1018.46 656.2 766.25 999.53 761.53 999.53 1018.46 656.2 1018.46" style="fill: #c1272d; stroke: #231f20; stroke-miterlimit: 10;"/>
      <polygon points="882.17 1020.28 891.08 894.11 955.64 898.54 942.28 1016.24 882.17 1020.28" style="fill: #534741; stroke: #231f20; stroke-miterlimit: 10;"/>
      <path d="M896.81,957.2c5.49-1.71,9.85,5.21,1.22,9.69-8.63,4.48-8.49-7.42-1.22-9.69Z" style="fill: #fcee21; stroke: #231f20; stroke-miterlimit: 10;"/>
      <g>
        <polygon points="983.32 987.1 873.42 878.02 854.49 904.84 963.75 1004.17 983.32 987.1" style="fill: #a67c52; stroke: #231f20; stroke-miterlimit: 10;"/>
        <path d="M864.52,901.11s5.47,2.63,1.22,5.35-1.22-5.35-1.22-5.35Z" style="fill: #b3b3b3; stroke: #b3b3b3; stroke-miterlimit: 10;"/>
        <path d="M875.89,888.04s6.27,2.5,1.22,5.35c-5.05,2.85-1.22-5.35-1.22-5.35Z" style="fill: #b3b3b3; stroke: #b3b3b3; stroke-miterlimit: 10;"/>
        <path d="M965.63,991.02s5.47,2.63,1.22,5.35-1.22-5.35-1.22-5.35Z" style="fill: #b3b3b3; stroke: #b3b3b3; stroke-miterlimit: 10;"/>
        <path d="M974.79,983.63s5.47,2.63,1.22,5.35c-4.25,2.72-1.22-5.35-1.22-5.35Z" style="fill: #b3b3b3; stroke: #b3b3b3; stroke-miterlimit: 10;"/>
      </g>
      <g>
        <polygon points="861.29 1008.68 999.53 968.99 979.64 948.18 850.93 990.44 861.29 1008.68" style="fill: #a67c52; stroke: #231f20; stroke-miterlimit: 10;"/>
        <path d="M980.13,956s-4.19,2.83-5.5-.83c-1.3-3.66,5.5.83,5.5.83Z" style="fill: #b3b3b3; stroke: #b3b3b3; stroke-miterlimit: 10;"/>
        <path d="M989.17,967.57s-4.31,3.4-5.5-.83c-1.18-4.23,5.5.83,5.5.83Z" style="fill: #b3b3b3; stroke: #b3b3b3; stroke-miterlimit: 10;"/>
        <path d="M862.96,995.72s-4.19,2.83-5.5-.83c-1.3-3.66,5.5.83,5.5.83Z" style="fill: #b3b3b3; stroke: #b3b3b3; stroke-miterlimit: 10;"/>
        <path d="M867.23,1004.07s-4.19,2.83-5.5-.83,5.5.83,5.5.83Z" style="fill: #b3b3b3; stroke: #b3b3b3; stroke-miterlimit: 10;"/>
      </g>
      <polygon points="656.2 766.25 587.19 766.25 690.71 647.77 999.53 644 999.53 761.53 656.2 766.25" style="fill: #534741; stroke: #231f20; stroke-miterlimit: 10;"/>
      <polygon points="684.03 978.43 801.98 978.43 809.82 825.01 689.6 825.01 684.03 978.43" style="fill: url(#radial-gradient); stroke: #231f20; stroke-miterlimit: 10;"/>
    </g>
    <g id="House-3" data-name="House">
      <polygon points="656.2 1018.46 656.2 766.25 999.53 761.53 999.53 1018.46 656.2 1018.46" style="fill: #ffb1c7; stroke: #231f20; stroke-miterlimit: 10;"/>
      <polygon points="882.17 1020.28 891.08 894.11 955.64 898.54 942.28 1016.24 882.17 1020.28" style="fill: #ffb1c7; stroke: #231f20; stroke-miterlimit: 10;"/>
      <path d="M896.81,957.2c5.49-1.71,9.85,5.21,1.22,9.69-8.63,4.48-8.49-7.42-1.22-9.69Z" style="fill: #ffb1c7; stroke: #231f20; stroke-miterlimit: 10;"/>
      <g>
        <polygon points="983.32 987.1 873.42 878.02 854.49 904.84 963.75 1004.17 983.32 987.1" style="fill: #ffb1c7; stroke: #231f20; stroke-miterlimit: 10;"/>
        <path d="M864.52,901.11s5.47,2.63,1.22,5.35-1.22-5.35-1.22-5.35Z" style="fill: #ffb1c7; stroke: #b3b3b3; stroke-miterlimit: 10;"/>
        <path d="M875.89,888.04s6.27,2.5,1.22,5.35c-5.05,2.85-1.22-5.35-1.22-5.35Z" style="fill: #ffb1c7; stroke: #b3b3b3; stroke-miterlimit: 10;"/>
        <path d="M965.63,991.02s5.47,2.63,1.22,5.35-1.22-5.35-1.22-5.35Z" style="fill: #ffb1c7; stroke: #b3b3b3; stroke-miterlimit: 10;"/>
        <path d="M974.79,983.63s5.47,2.63,1.22,5.35c-4.25,2.72-1.22-5.35-1.22-5.35Z" style="fill: #ffb1c7; stroke: #b3b3b3; stroke-miterlimit: 10;"/>
      </g>
      <g>
        <polygon points="861.29 1008.68 999.53 968.99 979.64 948.18 850.93 990.44 861.29 1008.68" style="fill: #ffb1c7; stroke: #231f20; stroke-miterlimit: 10;"/>
        <path d="M980.13,956s-4.19,2.83-5.5-.83c-1.3-3.66,5.5.83,5.5.83Z" style="fill: #ffb1c7; stroke: #b3b3b3; stroke-miterlimit: 10;"/>
        <path d="M989.17,967.57s-4.31,3.4-5.5-.83c-1.18-4.23,5.5.83,5.5.83Z" style="fill: #ffb1c7; stroke: #b3b3b3; stroke-miterlimit: 10;"/>
        <path d="M862.96,995.72s-4.19,2.83-5.5-.83c-1.3-3.66,5.5.83,5.5.83Z" style="fill: #ffb1c7; stroke: #b3b3b3; stroke-miterlimit: 10;"/>
        <path d="M867.23,1004.07s-4.19,2.83-5.5-.83,5.5.83,5.5.83Z" style="fill: #ffb1c7; stroke: #b3b3b3; stroke-miterlimit: 10;"/>
      </g>
      <polygon points="656.2 766.25 587.19 766.25 690.71 647.77 999.53 644 999.53 761.53 656.2 766.25" style="fill: #ffb1c7; stroke: #231f20; stroke-miterlimit: 10;"/>
      <polygon points="684.03 978.43 801.98 978.43 809.82 825.01 689.6 825.01 684.03 978.43" style="fill: #ffb1c7; stroke: #231f20; stroke-miterlimit: 10;"/>
    </g>
  </g>
  <g id="Sun">
    <g id="Sun-2" data-name="Sun">
      <path d="M920.54,419.16l-34.67-119.14,34.67,41.55-3.21-30.55.64-21.38,7.06,7.33-16.69-38.49,69.34,19.55-69.98-55.6,37.88-36.01h-13.8l6.1-11.78-30.17,5.3,77.68-97.43-89.24,44.21,23.11-44.21-19.9-4.28,4.49-13.44-41.73,9.84,34.67-64.21-67.62,55.6,4.18-28.72-31.37,31.62v-27.95l-17.55,24.44-8.22-41.55-16.82,60.49S734.2-1.51,733.15.02s-6.27,71.49-6.27,71.49l-25.07-18.94-7.26,11-10.91-6.72-3.21,12.07-27.61-26.73,20.25,70.54-15.11-3.33,1.28,17.32-20.54-8.16,8.35,19.55-70.62-58.66,55.86,106.96-19.9-6.48,4.49,17.09-17.33-3.32,38.52,35.44-53.29,32.59,60.99,14.46-17.98,12.22,36.6,1.83-30.82,46.44,54.27-28.11-14.76,48.88,14.76-12.22v9.78l36.25-22-22.27,69.04,56.3-55.6,1.28,48.27,34.03-51.93,2.57,13.44,16.26-23.83,2.92,78.82,23.95-64.15,10.8,14.05,5.03-13.44,5.89,7.94,1.93-21.38,57.78,84.93Z" style="fill: #e6df87; stroke: #000; stroke-miterlimit: 10;"/>
      <path d="M708.86,113.96s43.21-24.88,69.48-16.17c26.26,8.71,63.18,16.2,75.93,29.05l8.95,9.02" style="fill: #fff0a0; stroke: #231f20; stroke-miterlimit: 10;"/>
      <path d="M865.01,134.16s25.99,66.26,8.01,100.68c0,0-9.63,67.41-46.65,68.43,0,0-50.29,32.38-120.7-4.07,0,0-31.67-11-32.1-67.62,0,0-7.54-92.44,35.29-118.52" style="fill: #fff0a0; stroke: #231f20; stroke-miterlimit: 10;"/>
      <path d="M720.23,138.11s-32.74,50.71-10.91,72.1c5.44,5.33,19.59-12.95,21.31-22.08,3.52-18.71,3.33-41.67-.34-46.96" style="fill: #8a181a; stroke: #231f20; stroke-miterlimit: 10;"/>
      <path d="M810.75,161.12s-6.85,56.01,12.63,58.66c19.47,2.65,7.7-66.8,7.7-66.8" style="fill: #8a181a; stroke: #231f20; stroke-miterlimit: 10;"/>
      <path d="M823.59,205.93s13.49-34.11-1.5-36.05c-14.98-1.93-.75,11.71-2.36,14.26s-3.96,7.13-3.42,7.74,1.28,15.99,7.28,14.05Z" style="fill: #feecdf; stroke: #231f20; stroke-miterlimit: 10;"/>
      <path d="M710.94,196.6s-8.44-35,8.65-33.72c17.09,1.28-1.43,11.21-.13,13.95,1.3,2.74,3.04,7.55,2.32,8.02s-4.53,14.83-10.84,11.76Z" style="fill: #feecdf; stroke: #231f20; stroke-miterlimit: 10;"/>
      <path d="M788,163.65s2.66,6.16,6.75,6.04c1.8-.05,95.48-48.54,95.48-48.54l-4.75-.76,3.97-7.73-4.64-1.36,2.66-15.06s-21.76,15.42-24.25,19.36-19.46,29.1-36.51,29.79c-17.05.68-36.15,11.15-36.15,11.15" style="stroke: #231f20; stroke-miterlimit: 10;"/>
      <path d="M753.28,159.22s-5.01,3.09-8.35,1.21c-1.47-.83-57.1-75.51-57.1-75.51l4.29,1.56.23-7.09,4.47,1.1,4.66-11.58s11.03,20.22,11.3,24.03,2.88,28.67,16.72,36.63c13.84,7.96,24.91,23.6,24.91,23.6" style="stroke: #231f20; stroke-miterlimit: 10;"/>
      <path d="M701.81,266.41s20.99-42.77,68.5-37.27c47.51,5.5,70.3,12.53,60.99,42.46l-9.13,1.22s-7.24-14.97-27.79-13.14c0,0-28.73-5.19-47.51-.92-18.78,4.28-24.18,1.83-38.01,10.08,0,0-7.01,2.44-7.05-2.44Z" style="fill: #fff; stroke: #231f20; stroke-miterlimit: 10;"/>
      <path d="M701.81,265.4s80.71-48.68,127.36,3.26" style="fill: none; stroke: #231f20; stroke-miterlimit: 10;"/>
      <line x1="749.33" y1="231.59" x2="751.04" y2="256.68" style="fill: none; stroke: #231f20; stroke-miterlimit: 10;"/>
      <line x1="733.15" y1="238.51" x2="736.92" y2="258.47" style="fill: none; stroke: #231f20; stroke-miterlimit: 10;"/>
      <line x1="717.87" y1="244.7" x2="721.11" y2="261.73" style="fill: none; stroke: #231f20; stroke-miterlimit: 10;"/>
      <line x1="767.74" y1="229.14" x2="767.74" y2="256.68" style="fill: none; stroke: #231f20; stroke-miterlimit: 10;"/>
      <line x1="787.85" y1="231.59" x2="784.43" y2="256.68" style="fill: none; stroke: #231f20; stroke-miterlimit: 10;"/>
      <line x1="812.25" y1="238.51" x2="801.98" y2="258.47" style="fill: none; stroke: #231f20; stroke-miterlimit: 10;"/>
      <line x1="826.37" y1="248.49" x2="819.52" y2="266.62" style="fill: none; stroke: #231f20; stroke-miterlimit: 10;"/>
    </g>
    <g id="Sun-3" data-name="Sun">
      <path d="M920.54,419.16l-34.67-119.14,34.67,41.55-3.21-30.55.64-21.38,7.06,7.33-16.69-38.49,69.34,19.55-69.98-55.6,37.88-36.01h-13.8l6.1-11.78-30.17,5.3,77.68-97.43-89.24,44.21,23.11-44.21-19.9-4.28,4.49-13.44-41.73,9.84,34.67-64.21-67.62,55.6,4.18-28.72-31.37,31.62v-27.95l-17.55,24.44-8.22-41.55-16.82,60.49S734.2-1.51,733.15.02s-6.27,71.49-6.27,71.49l-25.07-18.94-7.26,11-10.91-6.72-3.21,12.07-27.61-26.73,20.25,70.54-15.11-3.33,1.28,17.32-20.54-8.16,8.35,19.55-70.62-58.66,55.86,106.96-19.9-6.48,4.49,17.09-17.33-3.32,38.52,35.44-53.29,32.59,60.99,14.46-17.98,12.22,36.6,1.83-30.82,46.44,54.27-28.11-14.76,48.88,14.76-12.22v9.78l36.25-22-22.27,69.04,56.3-55.6,1.28,48.27,34.03-51.93,2.57,13.44,16.26-23.83,2.92,78.82,23.95-64.15,10.8,14.05,5.03-13.44,5.89,7.94,1.93-21.38,57.78,84.93Z" style="fill: #ffb1c7; stroke: #000; stroke-miterlimit: 10;"/>
      <path d="M708.86,113.96s43.21-24.88,69.48-16.17c26.26,8.71,63.18,16.2,75.93,29.05l8.95,9.02" style="fill: #ffb1c7; stroke: #231f20; stroke-miterlimit: 10;"/>
      <path d="M865.01,134.16s25.99,66.26,8.01,100.68c0,0-9.63,67.41-46.65,68.43,0,0-50.29,32.38-120.7-4.07,0,0-31.67-11-32.1-67.62,0,0-7.54-92.44,35.29-118.52" style="fill: #ffb1c7; stroke: #231f20; stroke-miterlimit: 10;"/>
      <path d="M720.23,138.11s-32.74,50.71-10.91,72.1c5.44,5.33,19.59-12.95,21.31-22.08,3.52-18.71,3.33-41.67-.34-46.96" style="fill: #ffb1c7; stroke: #231f20; stroke-miterlimit: 10;"/>
      <path d="M810.75,161.12s-6.85,56.01,12.63,58.66c19.47,2.65,7.7-66.8,7.7-66.8" style="fill: #ffb1c7; stroke: #231f20; stroke-miterlimit: 10;"/>
      <path d="M823.59,205.93s13.49-34.11-1.5-36.05c-14.98-1.93-.75,11.71-2.36,14.26s-3.96,7.13-3.42,7.74,1.28,15.99,7.28,14.05Z" style="fill: #ffb1c7; stroke: #231f20; stroke-miterlimit: 10;"/>
      <path d="M710.94,196.6s-8.44-35,8.65-33.72c17.09,1.28-1.43,11.21-.13,13.95,1.3,2.74,3.04,7.55,2.32,8.02s-4.53,14.83-10.84,11.76Z" style="fill: #ffb1c7; stroke: #231f20; stroke-miterlimit: 10;"/>
      <path d="M788,163.65s2.66,6.16,6.75,6.04c1.8-.05,95.48-48.54,95.48-48.54l-4.75-.76,3.97-7.73-4.64-1.36,2.66-15.06s-21.76,15.42-24.25,19.36-19.46,29.1-36.51,29.79c-17.05.68-36.15,11.15-36.15,11.15" style="fill: #ffb1c7; stroke: #231f20; stroke-miterlimit: 10;"/>
      <path d="M753.28,159.22s-5.01,3.09-8.35,1.21c-1.47-.83-57.1-75.51-57.1-75.51l4.29,1.56.23-7.09,4.47,1.1,4.66-11.58s11.03,20.22,11.3,24.03,2.88,28.67,16.72,36.63,24.91,23.6,24.91,23.6" style="fill: #ffb1c7; stroke: #231f20; stroke-miterlimit: 10;"/>
      <path d="M701.81,266.41s20.99-42.77,68.5-37.27c47.51,5.5,70.3,12.53,60.99,42.46l-9.13,1.22s-7.24-14.97-27.79-13.14c0,0-28.73-5.19-47.51-.92-18.78,4.28-24.18,1.83-38.01,10.08,0,0-7.01,2.44-7.05-2.44Z" style="fill: #ffb1c7; stroke: #231f20; stroke-miterlimit: 10;"/>
      <path d="M701.81,265.4s80.71-48.68,127.36,3.26" style="fill: #ffb1c7; stroke: #231f20; stroke-miterlimit: 10;"/>
      <line x1="749.33" y1="231.59" x2="751.04" y2="256.68" style="fill: #ffb1c7; stroke: #231f20; stroke-miterlimit: 10;"/>
      <line x1="733.15" y1="238.51" x2="736.92" y2="258.47" style="fill: #ffb1c7; stroke: #231f20; stroke-miterlimit: 10;"/>
      <line x1="717.87" y1="244.7" x2="721.11" y2="261.73" style="fill: #ffb1c7; stroke: #231f20; stroke-miterlimit: 10;"/>
      <line x1="767.74" y1="229.14" x2="767.74" y2="256.68" style="fill: #ffb1c7; stroke: #231f20; stroke-miterlimit: 10;"/>
      <line x1="787.85" y1="231.59" x2="784.43" y2="256.68" style="fill: #ffb1c7; stroke: #231f20; stroke-miterlimit: 10;"/>
      <line x1="812.25" y1="238.51" x2="801.98" y2="258.47" style="fill: #ffb1c7; stroke: #231f20; stroke-miterlimit: 10;"/>
      <line x1="826.37" y1="248.49" x2="819.52" y2="266.62" style="fill: #ffb1c7; stroke: #231f20; stroke-miterlimit: 10;"/>
    </g>
  </g>
</svg>